<?xml version="1.0" standalone="yes"?>
<svg width="246" height="609">
<path style="fill:#000000; stroke:none;" d="M103 208C96.0953 237.218 98.7907 270.25 99.9614 300C101.282 333.552 103.26 366.688 106.826 400C107.5 406.289 106.313 412.744 107.325 419C111.581 445.311 120.927 470.521 124.7 497C126.627 510.522 125 525.343 125 539C125 544.229 126.037 550.664 121.772 554.581C114.386 561.364 97.1533 555.887 92.1944 565.133C88.447 572.12 98.1961 578.562 104 579L104 580C92.3904 583.997 100.473 594.562 109 596.54C128.777 601.127 158.321 597.745 178 594C184.329 592.795 193.369 594.236 198.431 589.44C204.32 583.86 202.722 572.255 203.039 565C203.998 543.1 204.797 521.733 201.579 500C197.396 471.753 183.762 443.631 183.015 415C182.438 392.909 180.134 367.867 183.209 346C185.593 329.049 192.87 314.796 190.871 297C188.798 278.541 177.213 262.145 175 244C180.154 243.879 188.55 243.065 192.471 239.427C197.379 234.875 198.402 227.144 200 221C204.339 204.32 205.394 186.969 208.194 170C209.544 161.826 210.332 147.795 215.56 141.188C219.956 135.634 230.078 135.692 231.721 127.985C233.322 120.481 230.153 112.189 228.321 105C223.907 87.6777 219.13 68.1456 209.185 53.0008C206.113 48.322 199.966 46.4921 197.317 41.8117C195.159 37.9983 195.677 33.0403 193.94 29C189.071 17.674 177.254 2.80334 164 2.04321C138.78 0.596741 107.612 13.0822 110.917 44C111.709 51.4111 119.111 52.6956 120.678 59.0185C122.078 64.6653 118.517 70.046 121.532 75.5756C124.699 81.381 128.603 91.244 133.343 95.6821C140.48 102.364 148.623 93.6157 148.276 107.996C148.111 114.842 138.76 117.693 134.615 122.174C122.788 134.959 113.826 158.188 98.9599 167.377C90.5761 172.56 82.14 152.442 79.1427 147C75.4792 140.348 69.6794 133.652 66.6991 126.985C59.7996 111.552 55.7187 94.1846 50.9992 78C49.7098 73.5781 46.6998 56.2394 40.1049 57.037C32.5158 57.955 41.5244 77.9838 38.3071 82.625C35.1774 87.1398 28.8899 88.5076 26.7423 94.0146C19.5134 112.551 41.6283 126.497 47.0633 141C48.8377 145.735 43.574 149.048 45.2685 154C47.0679 159.258 51.1769 164.222 53.9892 169C61.3986 181.588 70.6567 202.94 85 208.768C91.0035 211.207 96.8974 207.155 103 208z"/>
<path style="fill:#ffffff; stroke:none;" d="M126 575L126 576L131 576L126 575z"/>
<path style="fill:#000000; stroke:none;" d="M11 606L11 607L32 607L11 606M128 606L128 607L150 607L128 606z"/>
</svg>
