<?xml version="1.0" encoding="iso-8859-1"?>
<!-- Generator: Adobe Illustrator 19.0.0, SVG Export Plug-In . SVG Version: 6.00 Build 0)  -->
<svg version="1.1" id="Layer_1" xmlns="http://www.w3.org/2000/svg" xmlns:xlink="http://www.w3.org/1999/xlink" x="0px" y="0px"
	 viewBox="0 0 512 512" style="enable-background:new 0 0 512 512;" xml:space="preserve">
<g>
	<g>
		<circle cx="423.811" cy="64.738" r="40.34"/>
	</g>
</g>
<g>
	<g>
		<path d="M409.002,233.066c1.019,6.035,4.989,11.16,10.58,13.653l66.694,29.734c8.858,3.95,19.05,0.238,23.499-7.963
			c5.109-9.421,1.08-21.101-8.613-25.423l-57.744-25.743l-11.564-68.544l24.727,55.03l4.59-53.392
			c1.29-14.996-9.822-28.196-24.817-29.485l-48.419-4.162c-14.905-1.282-28.032,9.691-29.456,24.55l-44.193,38.088
			c-1.436,1.237-2.67,2.69-3.657,4.306l-42.05,68.809c-5.254,8.598-2.544,19.827,6.054,25.082c0.329,0.201,0.663,0.386,0.998,0.563
			c-4.668,39.695-19.266,98.389-42.274,105.778c-9.768,3.139-21.845-3.372-35.893-19.303c1.216-1.353,2.705-2.461,4.393-3.239
			c3.385-1.56,7.27-1.659,10.723-0.255c8.02,3.26,17.229,0.879,22.665-5.859l6.662-8.258c1.497-1.856,2.123-4.268,1.717-6.618
			c-0.406-2.351-1.806-4.411-3.84-5.657l-11.179-6.844c-2.464-9.855-10.215-17.517-20.098-19.864l-0.263-0.062
			c0.583,4.447,0.836,9.871,0.725,14.177c-0.135,5.277-0.547,21.334-12.39,25.518c-10.323,3.646-19.677-4.764-26.583-13.167
			c-0.933-1.135-1.907-2.385-2.87-3.684c-5.623,7.53-10.574,14.233-10.574,14.233l-91.353,13.514
			c-5.402,0.799-10.474,2.865-14.851,5.952c-12.817-3.335-22.825-10.806-30.594-21.057c-4.748-6.132-9.072-13.798-11.872-21.526
			c-0.658-1.806-2.53-2.943-4.494-2.612c-2.213,0.374-3.705,2.471-3.331,4.683c1.522,9.026,4.784,18.374,8.861,26.239
			c5.973,11.764,14.782,22.031,26.714,29.514c-3.832,3.767-7.742,12.543-8.784,17.842c-1.672,12.093-1.515,31.202,0.528,43.901
			l-13.688,30.269c-2.548,5.636-0.046,12.271,5.59,14.82c5.636,2.548,12.27,0.045,14.818-5.59l12.111-26.783
			c11.946-6.614,26.347-22.853,31.508-31.986c3.748-6.631,5.954-14.853,5.954-23.478c0-3.322,2.694-6.016,6.016-6.016
			s6.016,2.693,6.016,6.016c0,7.497-1.419,14.603-3.946,20.961c22.282,2.874,46.065,5.784,61.18,7.52l4.117,50.07
			c0.505,6.151,5.897,10.75,12.08,10.244c6.165-0.506,10.751-5.915,10.244-12.08l-4.606-56.021
			c5.401-9.886,11.414-25.583,16.117-38.94c12.972,13.133,29.597,23.984,47.253,18.316c34.212-10.986,48.829-81.768,53.164-120.024
			c3.376-1.436,6.354-3.892,8.413-7.26l40.558-66.37l13.724-11.829l-5.888,68.497c-0.784,9.115-0.479,18.516,0.925,27.557
			c2.007,12.926,5.552,35.611,11.87,75.845l-34.952,92.672c-4.274,11.333,1.448,23.986,12.781,28.261
			c11.339,4.275,23.988-1.453,28.261-12.781l36.996-98.091c1.34-3.552,1.735-7.391,1.146-11.141l-12.452-79.306l11.569,0.994
			l34.995,77.436l24.379,107.231c2.685,11.81,14.436,19.209,26.25,16.524c11.812-2.686,19.209-14.438,16.524-26.25l-24.87-109.387
			c-0.326-1.434-0.795-2.83-1.401-4.169l-30.748-68.027l-36.945-16.471c-10.983-4.896-18.734-14.9-20.737-26.757
			c-0.483-2.864-0.627,2.538,4.531-78.611L409.002,233.066z"/>
	</g>
</g>
<g>
	<g>
		<path d="M196.745,305.404c-1.347-3.812-8.849-5.913-16.263-3.294c-7.414,2.619-11.932,8.966-10.586,12.778
			c1.345,3.813,15.662,25.201,23.075,22.581C200.386,334.849,198.092,309.216,196.745,305.404z"/>
	</g>
</g>
<g>
</g>
<g>
</g>
<g>
</g>
<g>
</g>
<g>
</g>
<g>
</g>
<g>
</g>
<g>
</g>
<g>
</g>
<g>
</g>
<g>
</g>
<g>
</g>
<g>
</g>
<g>
</g>
<g>
</g>
</svg>
