<?xml version="1.0" encoding="utf-8"?>
<!-- Generator: Adobe Illustrator 22.1.0, SVG Export Plug-In . SVG Version: 6.00 Build 0)  -->
<svg version="1.1" id="Layer_1" xmlns="http://www.w3.org/2000/svg" xmlns:xlink="http://www.w3.org/1999/xlink" x="0px" y="0px"
	 viewBox="0 0 64 64" style="enable-background:new 0 0 64 64;" xml:space="preserve">
<style type="text/css">
	.st0{fill:#2196F3;}
	.st1{fill:#FFFFFF;}
</style>
<circle class="st0" cx="32" cy="32" r="32"/>
<g>
	<g>
		<path class="st1" d="M16,30.3c5.4-5,10.7-10,16-15c5.3,5,10.6,10,16,15c-1.1,0-2.1,0-3.2,0c0,0.2,0,0.3,0,0.4c0,4.6,0,9.1,0,13.7
			c0,0.9,0,0.9-0.9,0.9c-7.9,0-15.8,0-23.8,0c-0.9,0-0.9-0.1-0.9-0.9c0-4.6,0-9.1,0-13.7c0-0.1,0-0.2,0-0.4
			C18.1,30.3,17.1,30.3,16,30.3"/>
		<path class="st1" d="M39,18c1.4,0,2.8,0,4.2,0c0,2.3,0,4.5,0,6.8c-0.1-0.1-0.2-0.1-0.2-0.2c-1.2-1.2-2.5-2.4-3.7-3.5
			c-0.2-0.2-0.3-0.4-0.3-0.6c0-0.7,0-1.4,0-2.1C39,18.2,39,18.1,39,18z"/>
	</g>
	<g>
		<path class="st0" d="M25.6,38.3c0,0.9,0.2,1.6,0.6,2.2c1,1.5,2.8,1.7,4.1,0.6c0.3-0.3,0.6-0.5,0.9-0.8c0.8-0.7,1.4-0.6,2.1,0.1
			c0.4,0.3,0.7,0.7,1.1,1c0.6,0.6,1.4,0.7,2.2,0.4c1.8-0.6,2.9-2.7,1.9-4.5c-0.6-1.2-1.3-2.3-2-3.5c-0.8-1.4-2.1-2.1-3.7-2.2
			c-2-0.1-3.6,0.5-4.8,2.1c-0.8,1.2-1.5,2.4-2,3.7C25.7,37.6,25.6,38,25.6,38.3z"/>
		<path class="st0" d="M36.7,27.4c0-0.1,0-0.2,0-0.3c-0.1-1.2-1.3-2-2.4-1.5c-1.1,0.5-1.7,1.9-1.3,3c0.4,1.1,1.5,1.6,2.5,1
			C36.3,29.1,36.6,28.3,36.7,27.4z"/>
		<path class="st0" d="M27.5,27.4c0,0.9,0.4,1.7,1.1,2.2c1,0.6,2.1,0.3,2.5-0.8c0.4-1.1,0-2.4-1-3c-0.4-0.3-0.9-0.4-1.4-0.2
			C28,25.8,27.5,26.4,27.5,27.4z"/>
		<path class="st0" d="M23,30.2c0,1,0.8,2.1,1.7,2.4c1.3,0.4,2.4-0.4,2.3-1.7c0-1-0.9-2-1.9-2.3C23.9,28.3,23,29,23,30.2z"/>
		<path class="st0" d="M37.2,30.9c0,1.1,0.8,1.9,1.9,1.7c1-0.1,2-1.1,2.1-2.1c0.1-1.3-0.8-2.2-2-2C38.2,28.7,37.2,29.8,37.2,30.9z"
			/>
	</g>
</g>
</svg>
