<?xml version="1.0" encoding="utf-8"?>
<!-- Generator: Adobe Illustrator 22.1.0, SVG Export Plug-In . SVG Version: 6.00 Build 0)  -->
<svg version="1.1" id="Camada_1" xmlns="http://www.w3.org/2000/svg" xmlns:xlink="http://www.w3.org/1999/xlink" x="0px" y="0px"
	 viewBox="0 0 64 64" style="enable-background:new 0 0 64 64;" xml:space="preserve">
<style type="text/css">
	.st0{display:none;fill:#FFFFFF;stroke:#007BFF;stroke-miterlimit:10;}
	.st1{fill:none;stroke:#007BFF;stroke-miterlimit:10;}
	.st2{stroke:#000000;stroke-miterlimit:10;}
	.st3{display:none;}
	.st4{display:inline;}
	.st5{fill:#007BFF;}
</style>
<ellipse class="st0" cx="32.1" cy="32" rx="31.4" ry="31.5"/>
<polyline class="st1" points="48.2,18.2 47.5,18.3 46.9,18.9 "/>
<polyline class="st2" points="48.2,18.2 44.5,21 44.5,21 44.5,21 44.5,21 44.2,21.5 43.1,22.6 41.9,24.1 41.7,25.6 42.9,29.2 
	43.8,31.9 44,33.9 43.7,36.5 42.7,37.7 41.8,38.6 41.8,39.5 41.8,39.5 41,40.6 40.6,41.6 40.4,44.3 40.4,46.9 40.5,49.3 40.9,50.9 
	41.2,51.5 40.7,52.4 39.2,52.7 38.3,52.7 37.2,52.9 36.5,52.7 35.4,51.3 34.8,50.9 33.9,50.9 34.5,49.6 34.5,47.8 34.5,46 
	34.8,44.8 33.2,45.5 31.7,46.3 30.4,47.5 29.8,48.5 30.2,49.3 31.3,49.2 32.9,49.9 33,50 33.1,51.3 32.1,51.8 30.4,52 18.9,51.8 
	18.2,51.3 16.9,50.9 15.1,51.2 13.4,50.6 11.9,49.3 11,47.4 11,46.5 11.4,44.7 12.1,43.4 13.3,42.2 15.3,42.1 16.1,42.6 16.3,43 
	16.3,43.9 15.4,44.2 14.7,44.9 14.3,46.3 14.6,47.7 15.3,48.5 16.3,49.2 16.6,48.9 17.2,48.3 16.7,47.2 16.6,45.8 16.8,44.3 
	17.3,42.4 18.1,40.8 19.1,39.5 20.7,38.1 23.1,36.4 25.4,34.5 27.3,32.6 29.9,29.8 31,28.7 31.6,28.1 32.1,28 31,27.7 29.7,27.1 
	28.6,26.3 28.6,24.8 28.6,21.9 29.5,20.1 30.4,18.3 31.3,17.5 32.4,16.7 33.4,13.7 34.5,12.2 36.6,10.6 38.7,9.8 41.7,9.8 
	42.7,10.2 43.6,11.3 44.5,11.5 45.9,11.6 47.5,10.8 48.3,10.4 49,10.9 49.6,12.2 50.1,13.8 50.1,15.3 49.7,15.7 49.2,16.7 
	48.2,18.2 "/>
<path class="st1" d="M44.2,21.5"/>
<path class="st1" d="M47.5,18.5"/>
<g class="st3">
	<g class="st4">
		<path class="st5" d="M50.3,29.2c0.2-1.4,0.5-2.8,0.5-4.3c0-0.6-0.6-4.2,0-4.5c1.7-0.9,0.2-3.5-1.5-2.6c-1.4,0.7-1.9,2.1-1.8,3.6
			c0.2,2.5,0.3,4.5-0.1,7C47.1,30.3,50,31.1,50.3,29.2L50.3,29.2z"/>
	</g>
</g>
<g class="st3">
	<g class="st4">
		<path class="st5" d="M46.2,24.6c0.2-0.1,0.5-0.2,0.7-0.2c-0.6-0.6-1.2-1.2-1.8-1.8c-0.8,3.2,1,7.5,1.4,10.6
			c0.6,4.7,0.5,9.4,3.5,13.4c0.7,0.9,2.5,1,2.7-0.4c0.3-1.5,1-3.8,0.1-5.2c-0.6-1-1.7-1.1-2.5-1.9c-1.2-1.2-3.2,0.3-2.4,1.8
			c0.8,1.3,2.4,4.7,1.5,6.5c0.6-0.2,1.1-0.5,1.7-0.7c-4.9-1-2.9-8.3-2.4-11.6c0.3-1.9-2.6-2.7-2.9-0.8c-0.9,4.9-2.7,13.8,4.4,15.3
			c0.6,0.1,1.4-0.1,1.7-0.7c1.5-3,0-6.9-1.5-9.5c-0.8,0.6-1.6,1.2-2.4,1.8c1.4,1.4,2.2,0.9,1.6,4.2c0.9-0.1,1.8-0.2,2.7-0.4
			c-2.9-3.9-2.5-8.8-3.2-13.4c-0.3-2.3-0.7-4.4-0.9-6.7c0-0.2-0.2-2.2-0.4-1.6c0.3-1.1-0.7-2.2-1.8-1.8c-0.2,0.1-0.5,0.2-0.7,0.2
			C43.6,22.3,44.4,25.2,46.2,24.6L46.2,24.6z"/>
	</g>
</g>
<g class="st3">
	<g class="st4">
		<path class="st5" d="M49.9,23.6c-0.4-0.2-0.8-0.3-1.3-0.4c-0.1,0-0.3,0-0.2,0c-0.3-0.1-0.2,0,0.1,0.2c0.2,0.3,0.3,0.3,0.2,0
			c0-0.3-0.3-0.8-0.4-1.1c-0.1-0.2-0.2-0.3-0.3-0.5s0-0.2-0.1,0.2c0.1-0.8-0.2-1.6-1-1.8c-0.7-0.2-1.7,0.2-1.8,1
			c-0.1,0.7,0,1.3,0.3,2c0.2,0.5,0.4,0.7,0.5,1.2c0.2,0.8,0.7,1.3,1.4,1.6c0.3,0.1,0.6,0.1,0.9,0.2c0.1,0,0.5,0.1,0.2,0
			c0.7,0.4,1.6,0.2,2.1-0.5C50.8,25,50.6,24,49.9,23.6L49.9,23.6z"/>
	</g>
</g>
<g class="st3">
	<g class="st4">
		<path class="st5" d="M45.2,21.4c0,0-0.1,0-0.1,0.1c0.3-0.1,0.5-0.1,0.8-0.2h-0.1c0.5,0.5,1,1,1.5,1.5c0,0.1-0.1,0.2-0.1,0.3
			c0.4-0.7,0.1-1.7-0.5-2.1c-0.7-0.4-1.6-0.2-2.1,0.5c-0.2,0.4-0.4,0.8-0.3,1.2c0.1,0.8,0.6,1.5,1.5,1.5c0.4,0,0.7-0.1,1-0.3
			c0.7-0.4,0.9-1.4,0.5-2.1C46.9,21.2,46,21,45.2,21.4L45.2,21.4z"/>
	</g>
</g>
<g class="st3">
	<g class="st4">
		<path class="st5" d="M43.7,25c-0.1,0.6-0.1,1.2,0.1,1.8c1-0.3,1.9-0.5,2.9-0.8c-0.2-0.7-0.4-1.3-0.7-2c-0.3-0.8-1-1.3-1.8-1
			c-0.8,0.2-1.3,1.1-1,1.8c0.2,0.7,0.4,1.3,0.7,2c0.3,0.8,1,1.3,1.8,1c0.8-0.2,1.3-1.1,1-1.8c0-0.2-0.1-0.2-0.1-0.1
			c0-0.2,0-0.2,0-0.1c0.1-0.8-0.2-1.6-1-1.8C44.9,23.8,43.8,24.2,43.7,25L43.7,25z"/>
	</g>
</g>
<g class="st3">
	<g class="st4">
		<path class="st5" d="M43.5,25.5c-0.1,1.6,0,3.2,0.4,4.8c0.4,1.9,3.3,1.1,2.9-0.8c-0.3-1.3-0.3-2.7-0.2-4
			C46.6,23.6,43.6,23.6,43.5,25.5L43.5,25.5z"/>
	</g>
</g>
<g class="st3">
	<g class="st4">
		<path class="st5" d="M46.2,32.5L46.2,32.5c-0.1-0.2-0.2-0.4-0.3-0.6c0-0.1,0-0.2,0-0.2c0.1-0.3,0.1-0.5,0.2-0.8
			c0-0.1,0.1-0.1,0.1-0.2c0.2-0.1,0.4-0.3,0.7-0.4c-0.2,0-0.1,0.1,0,0c-0.1,0-0.2,0-0.3,0c0.3,0,0.5,0.1,0.6,0.4
			c0.2,0.4,0.1,0.8-0.2,1.1c0.6-0.6,0.6-1.6,0-2.1c-0.6-0.6-1.5-0.6-2.1,0c-1.3,1.3-0.3,3.4,1.3,3.6c0.7,0.1,1.6,0,2.1-0.5
			c0.6-0.6,0.8-1.8,0-2.5c-0.6-0.5-1.5-0.6-2.1,0C45.6,30.9,45.5,32,46.2,32.5L46.2,32.5z"/>
	</g>
</g>
<g class="st3">
	<g class="st4">
		<path class="st5" d="M44.9,33.1c-0.3,1.1-0.4,2.3-0.8,3.5c-0.3,1-1,1.9-1.2,3c-0.3,1.9,2.6,2.7,2.9,0.8c0.2-1.1,0.8-2,1.2-3
			c0.4-1.1,0.5-2.3,0.8-3.5C48.3,32,45.4,31.2,44.9,33.1L44.9,33.1z"/>
	</g>
</g>
<g class="st3">
	<g class="st4">
		<path class="st5" d="M47.5,32.2C47.2,32.1,47.5,32.3,47.5,32.2C47.4,32.2,47.7,32.4,47.5,32.2c0,0,0.1,0.2,0.1,0.3
			c0-0.3-0.1,0.2,0-0.1c0.3-0.7-0.3-1.7-1-1.8c-0.8-0.2-1.6,0.3-1.8,1c-0.5,1.4,0.5,3.1,1.9,3.4c0.8,0.2,1.7-0.2,1.8-1
			C48.7,33.3,48.3,32.4,47.5,32.2L47.5,32.2z"/>
	</g>
</g>
</svg>
